<svg xmlns="http://www.w3.org/2000/svg" xmlns:xlink="http://www.w3.org/1999/xlink" width="500" zoomAndPan="magnify" viewBox="0 0 375 374.999991" height="500" preserveAspectRatio="xMidYMid meet" version="1.0"><defs><g/><clipPath id="dd67b7cb65"><path d="M 114 107 L 260.839844 107 L 260.839844 195.851562 L 114 195.851562 Z M 114 107 " clip-rule="nonzero"/></clipPath></defs><g clip-path="url(#dd67b7cb65)"><path fill="#caebf2" d="M 173.164062 194.898438 C 172.519531 194.640625 171.84375 194.179688 171.65625 193.875 C 171.441406 193.527344 169.261719 193.4375 165.765625 193.632812 C 159.164062 193.996094 156.023438 193.324219 154.671875 191.253906 C 153.496094 189.453125 153.394531 183.347656 154.46875 178.945312 C 155.507812 174.703125 154.863281 174.125 151.746094 176.496094 C 147.203125 179.949219 137.949219 185.539062 135.3125 186.417969 C 131.460938 187.703125 129.332031 186.757812 127.359375 182.886719 C 126.820312 181.820312 124.90625 179.457031 123.109375 177.632812 C 120.59375 175.074219 119.773438 173.832031 119.523438 172.210938 C 119.347656 171.054688 118.941406 169.375 118.621094 168.476562 C 118.296875 167.578125 117.820312 165.625 117.558594 164.132812 C 117.300781 162.644531 116.539062 160.683594 115.871094 159.777344 C 114.414062 157.800781 113.839844 152.191406 114.894531 150.214844 C 115.28125 149.488281 115.527344 147.167969 115.480469 144.644531 C 115.414062 141.046875 115.605469 139.996094 116.605469 138.367188 C 117.269531 137.292969 117.984375 135.132812 118.195312 133.566406 C 118.410156 131.984375 119.125 129.976562 119.808594 129.050781 C 120.484375 128.136719 121.421875 126.214844 121.898438 124.777344 C 122.570312 122.75 123.179688 121.960938 124.660156 121.21875 C 128.105469 119.492188 130.160156 119.921875 137.914062 124 C 152.246094 131.539062 154.6875 131.457031 151.800781 123.535156 C 151.203125 121.894531 150.714844 120.035156 150.714844 119.40625 C 150.714844 117.984375 152.117188 116.664062 154.167969 116.148438 C 155.238281 115.878906 155.957031 115.1875 156.488281 113.910156 C 157.542969 111.375 160.164062 109.8125 162.929688 110.070312 C 164.597656 110.226562 165.453125 109.980469 166.632812 109.003906 C 168.683594 107.3125 170.425781 107.40625 173.328125 109.371094 C 175.921875 111.128906 177.3125 111.445312 177.3125 110.273438 C 177.3125 108.492188 182.375 107.660156 184.546875 109.085938 C 185.671875 109.828125 185.9375 109.773438 187.816406 108.433594 C 190.363281 106.617188 192.34375 106.640625 196.457031 108.550781 C 200.707031 110.523438 203.476562 113.910156 207.441406 121.996094 C 210.75 128.746094 212.023438 130.324219 213.195312 129.144531 C 213.671875 128.667969 213.292969 127.589844 211.644531 124.722656 C 207.980469 118.347656 207.503906 115.363281 210.140625 115.363281 C 210.8125 115.363281 212.679688 115.617188 214.289062 115.929688 C 215.898438 116.242188 218.191406 116.621094 219.382812 116.769531 C 223.546875 117.289062 229.171875 118.816406 231.328125 120.015625 C 232.519531 120.679688 234.757812 122.78125 236.296875 124.691406 C 240.011719 129.300781 243.53125 132.800781 245.035156 133.382812 C 245.710938 133.644531 248.03125 134 250.191406 134.175781 C 255.382812 134.589844 255.960938 134.800781 256.363281 136.410156 C 256.953125 138.765625 256.023438 139.054688 247.71875 139.101562 C 243.480469 139.128906 239.519531 139.1875 238.921875 139.238281 C 237.402344 139.367188 232.007812 143.910156 231.214844 145.726562 C 230.289062 147.859375 230.359375 156.492188 231.332031 159.710938 C 231.777344 161.179688 232.140625 163.203125 232.140625 164.203125 C 232.140625 166.699219 230.773438 166.613281 226.742188 163.863281 C 224.359375 162.242188 223.21875 160.996094 222.15625 158.855469 C 221.378906 157.285156 220.742188 155.59375 220.742188 155.089844 C 220.742188 153.875 219.332031 152.75 218.304688 153.144531 C 217.855469 153.320312 217.484375 153.972656 217.484375 154.597656 C 217.484375 155.746094 220.257812 161.785156 221.441406 163.21875 C 222.988281 165.085938 226.527344 166.636719 232.179688 167.914062 C 241.136719 169.945312 242.960938 169.753906 242.234375 166.855469 C 241.992188 165.882812 241.21875 165.34375 239.0625 164.65625 C 235.023438 163.367188 234.113281 162.140625 233.316406 156.917969 C 232.566406 152.019531 233.074219 149.835938 235.894531 145.746094 C 238.46875 142.019531 240.101562 141.796875 259.417969 142.5625 C 260.851562 142.621094 260.605469 144.957031 258.960938 146.917969 C 257.191406 149.027344 255.980469 149.039062 254.753906 146.957031 C 254.226562 146.058594 253.574219 145.324219 253.3125 145.324219 C 253.046875 145.324219 252.398438 146.058594 251.867188 146.957031 C 250.640625 149.042969 249.726562 149.015625 247.484375 146.835938 C 245.367188 144.773438 244.261719 145.09375 243.265625 148.050781 C 242.472656 150.417969 241.890625 150.566406 240.066406 148.867188 C 239.25 148.109375 238.351562 147.625 238.074219 147.796875 C 237.019531 148.453125 237.636719 150.222656 239.394531 151.566406 C 240.933594 152.746094 242.125 153.050781 247.050781 153.519531 C 256.503906 154.417969 257.929688 155.714844 257.546875 163.054688 C 257.292969 167.898438 256.425781 169.773438 254.738281 169.121094 C 253.648438 168.703125 252.59375 164.671875 253.003906 162.488281 C 253.582031 159.382812 251.578125 158.480469 240.757812 156.988281 C 236.039062 156.335938 236.945312 158.933594 242.101562 160.828125 C 244.15625 161.585938 245.085938 162.347656 246.34375 164.320312 C 247.730469 166.484375 247.914062 167.191406 247.640625 169.339844 C 247.449219 170.878906 247.617188 172.664062 248.078125 173.984375 C 248.613281 175.503906 248.703125 176.917969 248.390625 178.839844 C 248.148438 180.328125 247.929688 182.527344 247.90625 183.726562 C 247.828125 188.066406 245.386719 190.371094 243.984375 187.4375 C 242.933594 185.238281 241.257812 185.410156 240.488281 187.796875 C 239.867188 189.722656 238.464844 191.074219 237.785156 190.394531 C 237.578125 190.1875 237.210938 188.738281 236.964844 187.179688 C 236.414062 183.695312 235.40625 182.433594 234.167969 183.679688 C 233.519531 184.328125 233.394531 185.269531 233.621094 187.789062 C 233.867188 190.503906 233.765625 191.117188 233.023438 191.40625 C 231.617188 191.945312 230.675781 190.742188 230.371094 188.023438 C 230.078125 185.417969 228.871094 183.605469 227.847656 184.242188 C 227.519531 184.445312 227.253906 185.765625 227.253906 187.179688 C 227.253906 190.253906 226.035156 192.308594 224.351562 192.066406 C 223.363281 191.925781 223.097656 191.363281 222.640625 188.417969 C 221.742188 182.660156 219.027344 182.3125 219.203125 187.980469 C 219.292969 190.828125 218.210938 192.570312 216.710938 191.992188 C 216.035156 191.730469 215.855469 190.796875 215.855469 187.589844 C 215.855469 184.039062 215.707031 183.414062 214.683594 182.695312 C 212.832031 181.394531 211.753906 182.410156 211.019531 186.148438 C 210.324219 189.683594 208.625 192.214844 206.046875 193.554688 C 204.261719 194.480469 201.957031 194.601562 201.457031 193.789062 C 201.238281 193.433594 200.457031 193.632812 199.328125 194.335938 C 197.160156 195.679688 193.261719 195.796875 191.523438 194.574219 C 190.394531 193.785156 190.105469 193.785156 188.132812 194.574219 C 185.300781 195.714844 183.929688 195.664062 181.785156 194.351562 C 180.015625 193.269531 180.007812 193.269531 177.992188 194.355469 C 175.804688 195.53125 174.957031 195.625 173.164062 194.898438 Z M 186.949219 191.402344 C 188.445312 189.496094 190.152344 181 189.257812 179.917969 C 188.335938 178.800781 186.953125 178.886719 185.339844 180.164062 C 184.117188 181.128906 183.960938 181.722656 183.675781 186.539062 C 183.5 189.460938 183.480469 192.046875 183.625 192.285156 C 184.160156 193.15625 185.949219 192.683594 186.949219 191.402344 Z M 197.410156 190.675781 C 198.433594 189.371094 198.5625 188.628906 198.394531 184.980469 C 198.1875 180.347656 197.601562 179.203125 195.898438 180.121094 C 194.023438 181.125 192.839844 188.640625 194.160156 191.117188 C 194.941406 192.582031 196.027344 192.433594 197.410156 190.675781 Z M 176.703125 190.675781 C 177.984375 189.601562 179.742188 182.394531 179.226562 180.324219 C 178.914062 179.0625 177.195312 178.671875 175.8125 179.554688 C 174.679688 180.273438 172.589844 189.296875 173.191406 190.871094 C 173.589844 191.914062 175.335938 191.816406 176.703125 190.675781 Z M 166.804688 189.039062 C 167.304688 188.214844 168.289062 186.671875 168.988281 185.605469 C 171.226562 182.195312 170.292969 177.777344 167.683594 179.429688 C 166.769531 180.007812 163.105469 189.402344 163.527344 190.085938 C 164.121094 191.046875 165.929688 190.46875 166.804688 189.039062 Z M 160.167969 188.957031 C 161.007812 188.023438 162.355469 183.253906 163.039062 178.796875 C 163.324219 176.945312 162.242188 175.621094 160.691406 175.921875 C 160.179688 176.019531 159.1875 177.183594 158.492188 178.503906 C 157.488281 180.414062 157.230469 181.757812 157.230469 185.085938 C 157.230469 187.386719 157.390625 189.429688 157.589844 189.628906 C 158.234375 190.273438 159.210938 190.019531 160.167969 188.957031 Z M 206.40625 188.085938 C 206.894531 187.335938 207.40625 185.191406 207.539062 183.320312 C 207.734375 180.546875 207.574219 179.585938 206.667969 178.144531 C 205.335938 176.023438 204.246094 175.898438 203.046875 177.742188 C 202.257812 178.949219 202.230469 179.636719 202.804688 183.597656 C 203.164062 186.066406 203.550781 188.394531 203.667969 188.769531 C 204.015625 189.894531 205.460938 189.535156 206.40625 188.085938 Z M 142.992188 177.371094 C 149.25 173.472656 151.003906 171.773438 150.398438 170.1875 C 149.765625 168.535156 148.003906 169.152344 140.941406 173.488281 C 135.613281 176.757812 133.34375 178.738281 133.34375 180.121094 C 133.34375 182.75 135.203125 182.222656 142.992188 177.371094 Z M 242.136719 178.765625 C 243.824219 178.117188 243.085938 176.402344 240.59375 175.1875 C 238.351562 174.097656 237.796875 174.050781 232.335938 174.523438 C 220.886719 175.519531 214.144531 173.851562 211.210938 169.300781 C 207.9375 164.226562 206.644531 153.738281 208.453125 146.957031 C 209.324219 143.695312 209.246094 143.183594 208.023438 144.199219 C 205.742188 146.101562 205.226562 154.851562 206.847656 164.09375 C 207.898438 170.066406 208.460938 171.429688 210.980469 174.074219 C 215.074219 178.371094 217.53125 178.988281 230.875 179.050781 C 236.597656 179.078125 241.667969 178.949219 242.136719 178.765625 Z M 193.808594 174.953125 C 200.863281 174.105469 203 173.601562 203.585938 172.652344 C 203.757812 172.367188 203.402344 169.839844 202.792969 167.035156 C 200.566406 156.816406 200.15625 147.632812 201.78125 144.507812 C 206.777344 134.910156 206.714844 135.066406 206.078125 133.867188 C 205.15625 132.140625 202.332031 131.1875 196.429688 130.617188 C 186.683594 129.671875 177.546875 130.648438 168.085938 133.640625 C 162.058594 135.546875 159.9375 136.667969 157.855469 139.046875 C 154.679688 142.679688 153.371094 148.105469 153.730469 156.15625 C 153.984375 161.773438 154.640625 163.863281 157.308594 167.488281 C 160.082031 171.265625 162.1875 172.765625 166.730469 174.199219 C 173.453125 176.328125 180.671875 176.53125 193.808594 174.953125 Z M 168.878906 169.859375 C 164.023438 168.59375 159.832031 166.101562 158.46875 163.664062 C 158.105469 163.015625 157.800781 161.335938 157.789062 159.933594 C 157.773438 157.871094 158.023438 157.1875 159.09375 156.34375 C 160.316406 155.378906 161.773438 155.273438 178.222656 154.984375 C 196.875 154.652344 197.597656 154.726562 197.304688 156.992188 C 197.222656 157.621094 197.574219 158.738281 198.089844 159.476562 C 198.644531 160.269531 199.027344 161.832031 199.027344 163.296875 C 199.027344 166.546875 196.742188 169.511719 193.746094 170.144531 C 189.835938 170.972656 172.394531 170.773438 168.878906 169.859375 Z M 178.445312 166.183594 C 180.160156 165.164062 182.199219 161.386719 182.199219 159.222656 C 182.199219 156.941406 180.359375 157.480469 179.179688 160.105469 C 178.625 161.34375 177.460938 163.066406 176.601562 163.929688 C 175.695312 164.839844 175.164062 165.84375 175.34375 166.308594 C 175.746094 167.355469 176.519531 167.324219 178.445312 166.183594 Z M 185.988281 166.144531 C 187.53125 164.890625 188.914062 159.792969 188.117188 158.300781 C 187.667969 157.453125 187.394531 157.371094 186.777344 157.882812 C 186.347656 158.242188 186 158.929688 185.996094 159.417969 C 185.996094 159.90625 185.265625 161.773438 184.371094 163.574219 C 183.476562 165.371094 182.746094 166.902344 182.746094 166.976562 C 182.738281 167.519531 185.019531 166.929688 185.988281 166.144531 Z M 193.582031 164.96875 C 194.945312 162.40625 193.449219 156.210938 191.988281 158.398438 C 191.6875 158.847656 191.441406 160.359375 191.433594 161.757812 C 191.429688 163.15625 191.277344 164.6875 191.097656 165.164062 C 190.605469 166.449219 192.886719 166.273438 193.582031 164.96875 Z M 170.941406 164.101562 C 174.09375 161.949219 175.492188 158.398438 173.183594 158.398438 C 172.117188 158.398438 167 163.558594 167 164.636719 C 167 165.886719 168.652344 165.660156 170.941406 164.101562 Z M 164.582031 160.769531 C 167.308594 157.820312 165.523438 156.550781 162.152344 159.039062 C 160.359375 160.363281 160.035156 160.847656 160.535156 161.453125 C 161.503906 162.625 163.121094 162.351562 164.582031 160.769531 Z M 160.410156 151.382812 C 159.625 150.757812 158.824219 149.617188 158.632812 148.851562 C 158.207031 147.15625 159.792969 143.375 161.632812 141.679688 C 164.011719 139.492188 178.007812 135.519531 180.515625 136.316406 C 181.054688 136.488281 183.125 136.25 185.113281 135.785156 C 187.621094 135.203125 189.835938 135.058594 192.316406 135.3125 C 195.453125 135.636719 196.15625 135.929688 197.988281 137.679688 L 200.082031 139.675781 L 199.867188 144.207031 C 199.71875 147.433594 199.40625 148.992188 198.78125 149.617188 C 198.074219 150.328125 195.601562 150.632812 186.117188 151.183594 C 160.789062 152.660156 162.007812 152.648438 160.410156 151.382812 Z M 169.898438 148.351562 C 170.09375 147.839844 169.320312 146.980469 167.691406 145.898438 C 164.828125 143.996094 164.820312 143.996094 163.546875 144.929688 C 162.203125 145.914062 162.910156 147.265625 165.277344 148.25 C 167.824219 149.3125 169.515625 149.347656 169.898438 148.351562 Z M 176.226562 147.484375 C 176.226562 146.777344 174.742188 144.351562 173.320312 142.734375 C 172.324219 141.605469 169.714844 141 169.714844 141.902344 C 169.714844 142.4375 175.273438 148.046875 175.800781 148.046875 C 176.035156 148.046875 176.226562 147.792969 176.226562 147.484375 Z M 182.199219 147.53125 C 182.199219 147.246094 181.332031 145.53125 180.273438 143.71875 C 178.746094 141.105469 178.070312 140.421875 177.015625 140.421875 C 175.339844 140.421875 175.347656 140.847656 177.078125 143.476562 C 179.117188 146.570312 182.199219 149.011719 182.199219 147.53125 Z M 189.140625 146.550781 C 189.03125 146.324219 188.429688 145.039062 187.808594 143.691406 C 186.476562 140.789062 184.738281 139.074219 183.578125 139.519531 C 182.882812 139.785156 182.855469 140.085938 183.398438 141.355469 C 184.519531 143.960938 187.121094 146.957031 188.261719 146.957031 C 188.859375 146.957031 189.253906 146.773438 189.140625 146.550781 Z M 195.21875 144.914062 C 195.207031 142.742188 192.980469 139.058594 191.683594 139.058594 C 190.890625 139.058594 190.570312 139.484375 190.453125 140.695312 C 190.332031 141.933594 190.746094 142.832031 192.15625 144.375 C 194.367188 146.796875 195.230469 146.949219 195.21875 144.914062 Z M 133.257812 173.007812 C 142.308594 168.105469 144.105469 166.992188 145.765625 165.273438 C 149.039062 161.886719 146.613281 161.242188 140.28125 163.816406 C 128.628906 168.558594 126.515625 169.714844 125.738281 171.765625 C 125.375 172.726562 125.390625 173.53125 125.792969 174.28125 C 126.5625 175.726562 129.011719 175.3125 133.257812 173.007812 Z M 225.515625 169.78125 C 225.40625 169.449219 224.347656 168.847656 223.164062 168.449219 C 220.492188 167.539062 216.9375 163.730469 215.070312 159.773438 C 213.285156 155.988281 213.144531 151.0625 214.761719 149 C 216.164062 147.210938 219.277344 146.582031 221.03125 147.738281 C 222.269531 148.550781 223.996094 151.773438 224.695312 154.585938 C 224.882812 155.332031 225.40625 156.4375 225.855469 157.035156 C 226.605469 158.03125 226.679688 157.609375 226.695312 152.242188 C 226.710938 146.652344 226.644531 146.296875 225.351562 145.09375 C 223.621094 143.488281 220.238281 142.925781 217.410156 143.777344 C 213.101562 145.070312 210.691406 151.058594 211.546875 158.34375 C 212.0625 162.75 215.476562 168.246094 218.46875 169.492188 C 220.835938 170.480469 225.816406 170.683594 225.515625 169.78125 Z M 129.132812 164.710938 C 131.597656 163.691406 135.9375 162.074219 138.773438 161.113281 C 145.03125 159.003906 147.054688 157.996094 146.769531 157.140625 C 146.503906 156.347656 145.019531 156.265625 142.84375 156.929688 C 141.949219 157.199219 140.484375 157.507812 139.585938 157.613281 C 138.691406 157.714844 134.957031 158.402344 131.285156 159.140625 C 122.578125 160.890625 120.5 162.238281 121.863281 165.242188 C 122.664062 167.007812 123.777344 166.925781 129.132812 164.710938 Z M 133.460938 154.855469 C 143.726562 153.398438 145.828125 152.789062 145.828125 151.265625 C 145.828125 149.84375 144.511719 149.632812 137.488281 149.941406 C 126.28125 150.429688 121.261719 151.171875 120.164062 152.496094 C 118.988281 153.90625 119.167969 154.640625 120.902344 155.53125 C 122.628906 156.414062 122.375 156.429688 133.460938 154.855469 Z M 145.175781 145.960938 C 145 145.050781 140.882812 143.738281 128.53125 140.652344 C 120.765625 138.710938 118.6875 139.308594 118.6875 143.472656 C 118.6875 146.398438 118.609375 146.375 128.457031 146.554688 C 146.605469 146.882812 145.359375 146.925781 145.175781 145.960938 Z M 146.914062 140.726562 C 146.914062 139.6875 146.589844 139.507812 139.316406 136.550781 C 132.847656 133.921875 125.246094 131.90625 123.839844 132.449219 C 123.367188 132.628906 123.03125 133.453125 123.03125 134.425781 C 123.03125 136.347656 123.347656 136.515625 130.902344 138.640625 C 140.46875 141.335938 146.914062 142.171875 146.914062 140.726562 Z M 229.613281 139.371094 C 231.644531 138.441406 231.996094 138.007812 232.585938 135.691406 C 233.367188 132.628906 232.957031 129.875 231.40625 127.753906 C 228.390625 123.640625 219.109375 128.257812 219.113281 133.871094 C 219.117188 136.171875 220.820312 139.179688 222.507812 139.859375 C 224.511719 140.667969 227.175781 140.484375 229.613281 139.371094 Z M 225.207031 135.375 C 223.046875 134.363281 222.8125 130.253906 224.871094 129.496094 C 225.535156 129.25 226.554688 129.347656 227.3125 129.726562 C 228.347656 130.242188 228.613281 130.804688 228.613281 132.472656 C 228.613281 135.046875 227.15625 136.289062 225.207031 135.375 Z M 153.15625 136.363281 C 153.15625 136.078125 151.570312 135.28125 149.628906 134.589844 C 147.6875 133.898438 144.710938 132.355469 143.007812 131.15625 C 138.421875 127.933594 131.878906 124.625 130.097656 124.625 C 128.375 124.625 127.582031 125.980469 128.1875 127.890625 C 128.644531 129.339844 129.234375 129.621094 139.039062 133.058594 C 143.667969 134.679688 147.878906 136.261719 148.40625 136.578125 C 149.546875 137.257812 153.15625 137.097656 153.15625 136.363281 Z M 163.742188 131.203125 C 163.742188 130.625 163.128906 129.421875 162.378906 128.527344 C 161.628906 127.632812 160.65625 126.035156 160.214844 124.980469 C 159.210938 122.570312 158.441406 122.082031 157.355469 123.171875 C 156.582031 123.949219 156.636719 124.21875 157.953125 126.125 C 158.75 127.277344 159.402344 128.484375 159.402344 128.800781 C 159.402344 129.121094 159.90625 130.023438 160.523438 130.8125 C 161.859375 132.519531 163.742188 132.746094 163.742188 131.203125 Z M 172.148438 128.449219 C 172.640625 127.652344 171.605469 126.039062 170.078125 125.214844 C 169.273438 124.785156 168.34375 123.46875 167.78125 121.96875 C 166.414062 118.316406 164.964844 116.453125 163.492188 116.453125 C 161.785156 116.453125 161.414062 117.738281 162.417969 120.160156 C 164.757812 125.804688 170.675781 130.84375 172.148438 128.449219 Z M 180.269531 126.621094 C 181.140625 125.980469 181.179688 125.660156 180.601562 123.902344 C 179.789062 121.433594 175.660156 115.730469 173.804688 114.507812 C 172.660156 113.757812 172.277344 113.722656 171.578125 114.304688 C 170.484375 115.214844 170.886719 116.855469 173.234375 121.082031 C 175.25 124.71875 176.636719 126.472656 177.859375 126.945312 C 179.082031 127.421875 179.199219 127.40625 180.269531 126.621094 Z M 202.261719 126.554688 C 203.203125 125.417969 202.601562 123.957031 198.769531 118.085938 C 195.019531 112.339844 194.105469 111.371094 192.675781 111.644531 C 190.953125 111.976562 191.292969 114.117188 193.914062 119.453125 C 197.253906 126.25 200.34375 128.878906 202.261719 126.554688 Z M 191.429688 125.683594 C 191.429688 125.066406 190.074219 122.253906 188.417969 119.433594 C 184.195312 112.230469 182.167969 111.046875 182.101562 115.746094 C 182.046875 119.800781 184.628906 123.953125 188.441406 125.945312 C 190.632812 127.089844 191.429688 127.019531 191.429688 125.683594 Z M 251.414062 179.777344 C 251.941406 172.875 252.109375 172.246094 253.632812 171.546875 C 256.234375 170.359375 257.546875 172.820312 256.261719 176.472656 C 255.304688 179.195312 252.332031 184 251.601562 184 C 251.304688 184 251.226562 182.273438 251.414062 179.777344 Z M 251.414062 179.777344 " fill-opacity="1" fill-rule="nonzero"/></g><g fill="#caebf2" fill-opacity="1"><g transform="translate(118.002648, 254.40738)"><g><path d="M 1.8125 0 L 1.8125 -40.890625 L 10.234375 -40.890625 L 14 -21.328125 L 14 -40.890625 L 21.90625 -40.890625 L 21.90625 0 L 13.90625 0 L 9.8125 -20.46875 L 9.8125 0 Z M 1.8125 0 "/></g></g></g><g fill="#caebf2" fill-opacity="1"><g transform="translate(139.327593, 254.40738)"><g><path d="M 0.71875 0 L 4.671875 -40.890625 L 18.515625 -40.890625 L 22.421875 0 L 14.65625 0 L 14.09375 -6.625 L 9.140625 -6.625 L 8.671875 0 Z M 9.765625 -13.140625 L 13.46875 -13.140625 L 11.671875 -33.953125 L 11.28125 -33.953125 Z M 3.859375 -43.703125 L 3.859375 -47.234375 L 19 -47.234375 L 19 -43.703125 Z M 3.859375 -43.703125 "/></g></g></g><g fill="#caebf2" fill-opacity="1"><g transform="translate(160.033721, 254.40738)"><g><path d="M 1.8125 0 L 1.8125 -40.890625 L 14.28125 -40.890625 L 17.703125 -15.953125 L 21.140625 -40.890625 L 33.703125 -40.890625 L 33.703125 0 L 26.234375 0 L 26.234375 -29.46875 L 21.515625 0 L 14.1875 0 L 9.1875 -29.46875 L 9.1875 0 Z M 1.8125 0 "/></g></g></g><g fill="#caebf2" fill-opacity="1"><g transform="translate(193.163844, 254.40738)"><g><path d="M 0.71875 0 L 4.671875 -40.890625 L 18.515625 -40.890625 L 22.421875 0 L 14.65625 0 L 14.09375 -6.625 L 9.140625 -6.625 L 8.671875 0 Z M 9.765625 -13.140625 L 13.46875 -13.140625 L 11.671875 -33.953125 L 11.28125 -33.953125 Z M 9.765625 -13.140625 "/></g></g></g><g fill="#caebf2" fill-opacity="1"><g transform="translate(213.86997, 254.40738)"><g><path d="M 1.8125 0 L 1.8125 -40.890625 L 9.90625 -40.890625 L 9.90625 -24.515625 L 13.71875 -40.890625 L 21.953125 -40.890625 L 17.375 -22.1875 L 22.90625 0 L 14.421875 0 L 9.953125 -19.8125 L 9.953125 0 Z M 1.8125 0 "/></g></g></g><g fill="#caebf2" fill-opacity="1"><g transform="translate(233.957279, 254.40738)"><g><path d="M 0.71875 0 L 4.671875 -40.890625 L 18.515625 -40.890625 L 22.421875 0 L 14.65625 0 L 14.09375 -6.625 L 9.140625 -6.625 L 8.671875 0 Z M 9.765625 -13.140625 L 13.46875 -13.140625 L 11.671875 -33.953125 L 11.28125 -33.953125 Z M 9.765625 -13.140625 "/></g></g></g></svg>